<svg width="180" height="180" viewBox="0 0 180 180" fill="none" xmlns="http://www.w3.org/2000/svg">
  <!-- Apple Touch Icon - 180x180 -->
  <!-- Teal background with elegant palm tree in gold/light teal -->
  <defs>
    <linearGradient id="bgGrad" x1="0%" y1="0%" x2="100%" y2="100%">
      <stop offset="0%" stop-color="#0D7377"/>
      <stop offset="100%" stop-color="#0A5A5E"/>
    </linearGradient>
  </defs>

  <!-- Background -->
  <rect width="180" height="180" fill="url(#bgGrad)"/>

  <!-- Palm Tree Icon (centered) - elegant silhouette -->
  <g transform="translate(40, 28)">
    <!-- Trunk -->
    <path d="M50 125 L50 60" stroke="#F5B820" stroke-width="10" stroke-linecap="round"/>
    <!-- Left fronds -->
    <path d="M50 60 Q34 52 15 64" stroke="#F5B820" stroke-width="6" stroke-linecap="round" fill="none"/>
    <path d="M50 56 Q30 44 8 48" stroke="#F5B820" stroke-width="6" stroke-linecap="round" fill="none"/>
    <path d="M50 52 Q34 32 12 24" stroke="#F5B820" stroke-width="6" stroke-linecap="round" fill="none"/>
    <path d="M50 48 Q40 26 26 12" stroke="#F5B820" stroke-width="6" stroke-linecap="round" fill="none"/>
    <!-- Right fronds -->
    <path d="M50 60 Q66 52 85 64" stroke="#F5B820" stroke-width="6" stroke-linecap="round" fill="none"/>
    <path d="M50 56 Q70 44 92 48" stroke="#F5B820" stroke-width="6" stroke-linecap="round" fill="none"/>
    <path d="M50 52 Q66 32 88 24" stroke="#F5B820" stroke-width="6" stroke-linecap="round" fill="none"/>
    <path d="M50 48 Q60 26 74 12" stroke="#F5B820" stroke-width="6" stroke-linecap="round" fill="none"/>
    <!-- Center frond -->
    <path d="M50 52 Q50 30 50 8" stroke="#F5B820" stroke-width="6" stroke-linecap="round" fill="none"/>
  </g>
</svg>
