<svg width="32" height="32" viewBox="0 0 100 100" fill="none" xmlns="http://www.w3.org/2000/svg">
  <!-- Favicon - Teal palm tree icon -->
  <path d="M50 92 L50 52" stroke="#0D7377" stroke-width="9" stroke-linecap="round"/>
  <path d="M50 52 Q38 48 22 58" stroke="#0D7377" stroke-width="5" stroke-linecap="round" fill="none"/>
  <path d="M50 50 Q35 40 18 42" stroke="#0D7377" stroke-width="5" stroke-linecap="round" fill="none"/>
  <path d="M50 48 Q38 32 20 28" stroke="#0D7377" stroke-width="5" stroke-linecap="round" fill="none"/>
  <path d="M50 46 Q42 28 28 15" stroke="#0D7377" stroke-width="5" stroke-linecap="round" fill="none"/>
  <path d="M50 52 Q62 48 78 58" stroke="#0D7377" stroke-width="5" stroke-linecap="round" fill="none"/>
  <path d="M50 50 Q65 40 82 42" stroke="#0D7377" stroke-width="5" stroke-linecap="round" fill="none"/>
  <path d="M50 48 Q62 32 80 28" stroke="#0D7377" stroke-width="5" stroke-linecap="round" fill="none"/>
  <path d="M50 46 Q58 28 72 15" stroke="#0D7377" stroke-width="5" stroke-linecap="round" fill="none"/>
  <path d="M50 48 Q50 30 50 10" stroke="#0D7377" stroke-width="5" stroke-linecap="round" fill="none"/>
</svg>
