<svg width="32" height="32" viewBox="0 0 100 100" fill="none" xmlns="http://www.w3.org/2000/svg">
  <!-- Lamma+ Favicon - Filled palm tree silhouette -->

  <!-- Fronds -->
  <path d="M48,42 C46,30 46,18 48,4 L52,4 C54,18 54,30 52,42 Z" fill="#0D7377"/>
  <path d="M48,42 C38,30 28,20 16,10 C22,16 34,28 52,40 Z" fill="#0D7377"/>
  <path d="M52,42 C62,30 72,20 84,10 C78,16 66,28 48,40 Z" fill="#0D7377"/>
  <path d="M47,46 C34,42 20,40 6,46 C18,38 32,40 51,45 Z" fill="#0D7377"/>
  <path d="M53,46 C66,42 80,40 94,46 C82,38 68,40 49,45 Z" fill="#0D7377"/>
  <path d="M47,48 C36,54 24,60 12,68 C20,60 32,52 51,47 Z" fill="#0D7377"/>
  <path d="M53,48 C64,54 76,60 88,68 C80,60 68,52 49,47 Z" fill="#0D7377"/>
  <path d="M48,40 C40,28 32,18 22,6 C28,14 38,26 52,38 Z" fill="#0D7377"/>
  <path d="M52,40 C60,28 68,18 78,6 C72,14 62,26 48,38 Z" fill="#0D7377"/>

  <!-- Coconuts -->
  <circle cx="44" cy="50" r="4" fill="#0D7377"/>
  <circle cx="56" cy="50" r="4" fill="#0D7377"/>
  <circle cx="50" cy="54" r="4" fill="#0D7377"/>
  <circle cx="44" cy="55" r="3" fill="#0D7377"/>
  <circle cx="56" cy="55" r="3" fill="#0D7377"/>

  <!-- Trunk -->
  <rect x="46" y="50" width="8" height="46" rx="2" fill="#0D7377"/>
</svg>
