<svg width="100" height="100" viewBox="0 0 100 100" fill="none" xmlns="http://www.w3.org/2000/svg">
  <!-- Elegant Palm Tree - Brown version (for light/cream backgrounds) -->
  <!-- Trunk -->
  <path d="M50 92 L50 48" stroke="#78350f" stroke-width="8" stroke-linecap="round"/>
  <!-- Left fronds -->
  <path d="M50 48 Q36 42 20 52" stroke="#78350f" stroke-width="4.5" stroke-linecap="round" fill="none"/>
  <path d="M50 45 Q32 35 14 38" stroke="#78350f" stroke-width="4.5" stroke-linecap="round" fill="none"/>
  <path d="M50 42 Q36 26 18 20" stroke="#78350f" stroke-width="4.5" stroke-linecap="round" fill="none"/>
  <path d="M50 39 Q42 22 30 10" stroke="#78350f" stroke-width="4.5" stroke-linecap="round" fill="none"/>
  <!-- Right fronds -->
  <path d="M50 48 Q64 42 80 52" stroke="#78350f" stroke-width="4.5" stroke-linecap="round" fill="none"/>
  <path d="M50 45 Q68 35 86 38" stroke="#78350f" stroke-width="4.5" stroke-linecap="round" fill="none"/>
  <path d="M50 42 Q64 26 82 20" stroke="#78350f" stroke-width="4.5" stroke-linecap="round" fill="none"/>
  <path d="M50 39 Q58 22 70 10" stroke="#78350f" stroke-width="4.5" stroke-linecap="round" fill="none"/>
  <!-- Center frond -->
  <path d="M50 42 Q50 24 50 6" stroke="#78350f" stroke-width="4.5" stroke-linecap="round" fill="none"/>
</svg>
