<svg width="100" height="100" viewBox="0 0 100 100" fill="none" xmlns="http://www.w3.org/2000/svg">
  <!-- Date Palm Tree - Teal version (for dark/navy backgrounds) -->
  <!-- Matches the brand image: middle-left panel -->

  <!-- Trunk -->
  <path d="M50 92 L50 52" stroke="#0D7377" stroke-width="7" stroke-linecap="round"/>

  <!-- Left side fronds (curved gracefully outward) -->
  <path d="M50 52 Q38 48 22 58" stroke="#0D7377" stroke-width="4" stroke-linecap="round" fill="none"/>
  <path d="M50 50 Q35 40 18 42" stroke="#0D7377" stroke-width="4" stroke-linecap="round" fill="none"/>
  <path d="M50 48 Q38 32 20 28" stroke="#0D7377" stroke-width="4" stroke-linecap="round" fill="none"/>
  <path d="M50 46 Q42 28 28 15" stroke="#0D7377" stroke-width="4" stroke-linecap="round" fill="none"/>

  <!-- Right side fronds (curved gracefully outward) -->
  <path d="M50 52 Q62 48 78 58" stroke="#0D7377" stroke-width="4" stroke-linecap="round" fill="none"/>
  <path d="M50 50 Q65 40 82 42" stroke="#0D7377" stroke-width="4" stroke-linecap="round" fill="none"/>
  <path d="M50 48 Q62 32 80 28" stroke="#0D7377" stroke-width="4" stroke-linecap="round" fill="none"/>
  <path d="M50 46 Q58 28 72 15" stroke="#0D7377" stroke-width="4" stroke-linecap="round" fill="none"/>

  <!-- Center frond (pointing up) -->
  <path d="M50 48 Q50 30 50 10" stroke="#0D7377" stroke-width="4" stroke-linecap="round" fill="none"/>
</svg>
